# xmcd
#
# Track frame offsets:
#	150
#	16792
#	29744
#	44086
#	53661
#	70163
#	94425
#	110359
#	129619
#	149641
#	166660
#	189337
#	198107
#	217324
#	234938
#	251843
#	270142
#	279392
#
# Disc length: 4012 seconds
#
# Revision: 0
# Processed by: cddbd v1.4PL0 Copyright (c) Steve Scherf et al.
# Submitted via: audiograbber 1.81.02
#
DISCID=080faa12
DTITLE=Big Bill Broonzy - An evening with Big Bill Broonzy, vol. 1
DYEAR=1956
DGENRE=Blues
TTITLE0=When things go wrong
TTITLE1=Barrelhouse shuffle
TTITLE2=Down by the riverside
TTITLE3=Swanee River
TTITLE4=Swing low, sweet chariot
TTITLE5=In the evening when the sun goes down
TTITLE6=Big Bill talks
TTITLE7=John Henry
TTITLE8=Just a dream
TTITLE9=Ananais
TTITLE10=Louisiana blues
TTITLE11=Somebody loves me
TTITLE12=Willie Mae blues
TTITLE13=The crawdad song
TTITLE14=The blue tail fly
TTITLE15=Black, brown and white
TTITLE16=Guitar blues
TTITLE17=Goodnight, Irene
EXTD=Big Bill Broonzy, sang og guitar\n1991. 1 cd, Mono\nForlag: Storyville\nOp
EXTD=stilling i folkebiblioteker: Blues\nLive-optagelse, Montmartre, København 
EXTD=4.-6. maj 1956\nStoryville STCD 8017\n
EXTT0=
EXTT1=
EXTT2=
EXTT3=
EXTT4=
EXTT5=
EXTT6=
EXTT7=
EXTT8=
EXTT9=
EXTT10=
EXTT11=
EXTT12=
EXTT13=
EXTT14=
EXTT15=
EXTT16=
EXTT17=
PLAYORDER=
